<svg width="41" height="41" viewBox="0 0 41 41" fill="none" xmlns="http://www.w3.org/2000/svg">
<path d="M34.0633 19.7191L35.2707 19.7191L34.4168 18.8655L26.3527 10.8039C26.2059 10.6571 26.1234 10.458 26.1234 10.2503C26.1234 10.0427 26.2059 9.84358 26.3527 9.69676C26.4995 9.54995 26.6986 9.46746 26.9063 9.46746C27.1139 9.46746 27.313 9.54994 27.4598 9.69676L37.7098 19.9468L37.7103 19.9472C37.783 20.0198 37.8407 20.106 37.8801 20.2009C37.9195 20.2958 37.9398 20.3976 37.9398 20.5003C37.9398 20.6031 37.9195 20.7048 37.8801 20.7998C37.8407 20.8947 37.783 20.9809 37.7103 21.0535L37.7098 21.0539L27.4598 31.3039C27.313 31.4507 27.1139 31.5332 26.9063 31.5332C26.6986 31.5332 26.4995 31.4507 26.3527 31.3039C26.2059 31.1571 26.1234 30.958 26.1234 30.7503C26.1234 30.5427 26.2059 30.3436 26.3527 30.1968L34.4168 22.1352L35.2707 21.2816L34.0633 21.2816L8.84375 21.2816C8.63655 21.2816 8.43784 21.1993 8.29132 21.0528C8.14481 20.9062 8.0625 20.7075 8.0625 20.5003C8.0625 20.2931 8.14481 20.0944 8.29132 19.9479C8.43783 19.8014 8.63655 19.7191 8.84375 19.7191L34.0633 19.7191Z" fill="black" stroke="black"/>
</svg>
