<svg width="156" height="157" viewBox="0 0 156 157" fill="none" xmlns="http://www.w3.org/2000/svg">
<path d="M25.0809 73.8437H122.455C123.746 73.8437 124.984 74.3567 125.897 75.2697C126.811 76.1828 127.323 77.4212 127.323 78.7124C127.323 80.0037 126.811 81.242 125.897 82.1551C124.984 83.0682 123.746 83.5811 122.455 83.5811H25.0809C23.7896 83.5811 22.5512 83.0682 21.6382 82.1551C20.7251 81.242 20.2122 80.0037 20.2122 78.7124C20.2122 77.4212 20.7251 76.1828 21.6382 75.2697C22.5512 74.3567 23.7896 73.8437 25.0809 73.8437Z" fill="black"/>
<path d="M27.0965 78.7124L67.4774 119.084C68.3916 119.998 68.9052 121.238 68.9052 122.531C68.9052 123.824 68.3916 125.064 67.4774 125.978C66.5632 126.892 65.3233 127.406 64.0304 127.406C62.7375 127.406 61.4975 126.892 60.5833 125.978L16.7651 82.1595C16.3117 81.7072 15.9519 81.1699 15.7065 80.5784C15.4611 79.9869 15.3347 79.3528 15.3347 78.7124C15.3347 78.072 15.4611 77.4379 15.7065 76.8464C15.9519 76.2549 16.3117 75.7176 16.7651 75.2654L60.5833 31.4471C61.4975 30.5329 62.7375 30.0193 64.0304 30.0193C65.3233 30.0193 66.5632 30.5329 67.4774 31.4471C68.3916 32.3613 68.9052 33.6013 68.9052 34.8942C68.9052 36.1871 68.3916 37.427 67.4774 38.3412L27.0965 78.7124Z" fill="black"/>
</svg>
