<svg width="24" height="24" viewBox="0 0 12 12" fill="none" xmlns="http://www.w3.org/2000/svg">
<path d="M9 6.25C9.13807 6.25 9.25 6.13807 9.25 6C9.25 5.86193 9.13807 5.75 9 5.75V6.25ZM3.82322 5.82322C3.72559 5.92085 3.72559 6.07915 3.82322 6.17678L5.41421 7.76777C5.51184 7.8654 5.67014 7.8654 5.76777 7.76777C5.8654 7.67014 5.8654 7.51184 5.76777 7.41421L4.35355 6L5.76777 4.58579C5.8654 4.48816 5.8654 4.32986 5.76777 4.23223C5.67014 4.1346 5.51184 4.1346 5.41421 4.23223L3.82322 5.82322ZM9 5.75L4 5.75V6.25L9 6.25V5.75Z" fill="#434343"/>
</svg>
