<svg width="41" height="41" viewBox="0 0 41 41" fill="none" xmlns="http://www.w3.org/2000/svg">
<path fill-rule="evenodd" clip-rule="evenodd" d="M7 20.5003C7 20.1605 7.13499 19.8346 7.37527 19.5944C7.61555 19.3541 7.94144 19.2191 8.28125 19.2191L30.5008 19.2191L22.4366 11.1575C22.196 10.9169 22.0609 10.5906 22.0609 10.2503C22.0609 9.9101 22.196 9.58379 22.4366 9.34321C22.6772 9.10262 23.0035 8.96746 23.3438 8.96746C23.684 8.96746 24.0103 9.10262 24.2509 9.34321L34.5009 19.5932C34.6202 19.7122 34.7149 19.8536 34.7795 20.0093C34.844 20.1649 34.8773 20.3318 34.8773 20.5003C34.8773 20.6689 34.844 20.8357 34.7795 20.9914C34.7149 21.1471 34.6202 21.2884 34.5009 21.4075L24.2509 31.6575C24.0103 31.898 23.684 32.0332 23.3438 32.0332C23.0035 32.0332 22.6772 31.898 22.4366 31.6575C22.196 31.4169 22.0609 31.0906 22.0609 30.7503C22.0609 30.4101 22.196 30.0838 22.4366 29.8432L30.5008 21.7816L8.28125 21.7816C7.94144 21.7816 7.61555 21.6466 7.37527 21.4063C7.13499 21.166 7 20.8401 7 20.5003Z" fill="black"/>
</svg>
